<svg xmlns="http://www.w3.org/2000/svg" width="1100" height="640" viewBox="0 0 1100 640">
<rect width="100%" height="100%" fill="#ffffff"/>
<style>text{font-family:Arial,Helvetica,sans-serif}.title{font-weight:700;font-size:24px}.sub{font-size:13px;fill:#566}.label{font-size:13px;fill:#243}.small{font-size:11px;fill:#465}.tick{font-size:11px;fill:#687}</style>
<text x="550.0" y="34" text-anchor="middle" class="title">Liquidambar formosana core-stage expression shifts</text>
<text x="550.0" y="58" text-anchor="middle" class="sub">Gene-level CPM; darker bars = replicate-consistent &gt;=7/9</text>
<line x1="92" x2="1058" y1="548.0" y2="548.0" stroke="#d9e0e4" stroke-width="1"/>
<text x="80" y="552.0" text-anchor="end" class="tick">3544</text>
<line x1="92" x2="1058" y1="432.0" y2="432.0" stroke="#d9e0e4" stroke-width="1"/>
<text x="80" y="436.0" text-anchor="end" class="tick">1772</text>
<line x1="92" x2="1058" y1="316.0" y2="316.0" stroke="#d9e0e4" stroke-width="1"/>
<text x="80" y="320.0" text-anchor="end" class="tick">0</text>
<line x1="92" x2="1058" y1="200.0" y2="200.0" stroke="#d9e0e4" stroke-width="1"/>
<text x="80" y="204.0" text-anchor="end" class="tick">1772</text>
<line x1="92" x2="1058" y1="84.0" y2="84.0" stroke="#d9e0e4" stroke-width="1"/>
<text x="80" y="88.0" text-anchor="end" class="tick">3544</text>
<line x1="92" x2="1058" y1="316.0" y2="316.0" stroke="#222" stroke-width="1.2"/>
<rect x="92" y="74" width="16" height="16" fill="#d88a42" opacity="0.42"/>
<text x="114" y="87" class="small">UP |log2FC|&gt;=1</text>
<rect x="312" y="74" width="16" height="16" fill="#c65f1a" opacity="1"/>
<text x="334" y="87" class="small">UP consistent</text>
<rect x="532" y="74" width="16" height="16" fill="#5f94bd" opacity="0.42"/>
<text x="554" y="87" class="small">DOWN |log2FC|&gt;=1</text>
<rect x="752" y="74" width="16" height="16" fill="#2f6f9f" opacity="1"/>
<text x="774" y="87" class="small">DOWN consistent</text>
<rect x="150.8" y="192.0" width="54" height="124.0" fill="#d88a42" opacity="0.35"/>
<rect x="150.8" y="212.8" width="54" height="103.2" fill="#c65f1a"/>
<text x="177.8" y="184.0" text-anchor="middle" class="small">1895</text>
<text x="177.8" y="226.8" text-anchor="middle" class="small" fill="#fff">1577</text>
<rect x="220.8" y="316.0" width="54" height="201.7" fill="#5f94bd" opacity="0.35"/>
<rect x="220.8" y="316.0" width="54" height="183.8" fill="#2f6f9f"/>
<text x="247.8" y="535.7" text-anchor="middle" class="small">3082</text>
<text x="247.8" y="492.8" text-anchor="middle" class="small" fill="#fff">2808</text>
<text x="212.8" y="598" text-anchor="middle" class="label">Callus→Globular</text>
<rect x="392.2" y="294.4" width="54" height="21.6" fill="#d88a42" opacity="0.35"/>
<rect x="392.2" y="297.4" width="54" height="18.6" fill="#c65f1a"/>
<text x="419.2" y="286.4" text-anchor="middle" class="small">330</text>
<text x="419.2" y="311.4" text-anchor="middle" class="small" fill="#fff">284</text>
<rect x="462.2" y="316.0" width="54" height="33.1" fill="#5f94bd" opacity="0.35"/>
<rect x="462.2" y="316.0" width="54" height="15.8" fill="#2f6f9f"/>
<text x="489.2" y="367.1" text-anchor="middle" class="small">506</text>
<text x="489.2" y="324.8" text-anchor="middle" class="small" fill="#fff">242</text>
<text x="454.2" y="598" text-anchor="middle" class="label">Globular→Heart</text>
<rect x="633.8" y="280.7" width="54" height="35.3" fill="#d88a42" opacity="0.35"/>
<rect x="633.8" y="293.2" width="54" height="22.8" fill="#c65f1a"/>
<text x="660.8" y="272.7" text-anchor="middle" class="small">540</text>
<text x="660.8" y="307.2" text-anchor="middle" class="small" fill="#fff">348</text>
<rect x="703.8" y="316.0" width="54" height="46.5" fill="#5f94bd" opacity="0.35"/>
<rect x="703.8" y="316.0" width="54" height="41.1" fill="#2f6f9f"/>
<text x="730.8" y="380.5" text-anchor="middle" class="small">711</text>
<text x="730.8" y="350.1" text-anchor="middle" class="small" fill="#fff">628</text>
<text x="695.8" y="598" text-anchor="middle" class="label">Heart→Torpedo</text>
<rect x="875.2" y="286.7" width="54" height="29.3" fill="#d88a42" opacity="0.35"/>
<rect x="875.2" y="302.8" width="54" height="13.2" fill="#c65f1a"/>
<text x="902.2" y="278.7" text-anchor="middle" class="small">447</text>
<text x="902.2" y="316.8" text-anchor="middle" class="small" fill="#fff">201</text>
<rect x="945.2" y="316.0" width="54" height="15.9" fill="#5f94bd" opacity="0.35"/>
<rect x="945.2" y="316.0" width="54" height="10.6" fill="#2f6f9f"/>
<text x="972.2" y="349.9" text-anchor="middle" class="small">243</text>
<text x="972.2" y="319.6" text-anchor="middle" class="small" fill="#fff">162</text>
<text x="937.2" y="598" text-anchor="middle" class="label">Torpedo→Cotyledon</text>
<text x="28" y="320.0" transform="rotate(-90 28 320.0)" text-anchor="middle" class="label">Gene count</text>
</svg>